<svg xmlns="http://www.w3.org/2000/svg" viewBox="0 0 250.71 309.18"><g id="OBJECTS"><path d="M218.57,206.69s11.36,17.44-8.57,26.55-55.52-9.55-77.6,15.51c5.52-34.83,18.56-49.55,38.63-56.9C195.31,183,226,191.49,218.57,206.69Z" transform="translate(-124.64 -95.41)" style="fill:#388c38"/><path d="M201.94,204.26c-14.21,3.16-20.87,18.36-20,31.24,2.81.17,5.58.34,8.27.42C189,224.57,192.41,210.62,201.94,204.26Z" transform="translate(-124.64 -95.41)" style="fill:#8cc64e"/><path d="M169.59,208.13c-12.41,4.66-14,16.23-16.73,28.43a54.71,54.71,0,0,1,7.44-1.23C159.3,224.8,163.36,215.91,169.59,208.13Z" transform="translate(-124.64 -95.41)" style="fill:#8cc64e"/><path d="M182.07,204.26c-2.58-6.44-7.16-8.87-12.19-12a57.57,57.57,0,0,0-10,5C167.3,197.3,175.09,200.78,182.07,204.26Z" transform="translate(-124.64 -95.41)" style="fill:#8cc64e"/><path d="M261.57,293.72a88.76,88.76,0,0,0,.33-24.27,96.81,96.81,0,0,0-5.75-23.75,90.55,90.55,0,0,0-11.67-21.45,45.81,45.81,0,0,0-8.84-8.3,53.39,53.39,0,0,0-10.62-6,72.4,72.4,0,0,0-23.81-5.69,77.92,77.92,0,0,0-24.48,2.09,62.55,62.55,0,0,0-22.3,10.31A47.81,47.81,0,0,0,139,235.72,51.75,51.75,0,0,1,145.33,225a53.29,53.29,0,0,1,8.85-8.72,63.26,63.26,0,0,1,22.34-10.78A78.89,78.89,0,0,1,201.29,203a74,74,0,0,1,24.38,5.4,55.38,55.38,0,0,1,11.05,6,47.2,47.2,0,0,1,9.36,8.5,92.58,92.58,0,0,1,12.38,21.85,99.6,99.6,0,0,1,6.32,24.31,91.71,91.71,0,0,1,0,25.26Z" transform="translate(-124.64 -95.41)" style="fill:#506815"/><path d="M280.26,216s-5.18,20.15,16.61,22.4,49.56-26.8,78.49-10.13c-16.37-31.23-33.44-41-54.81-41.55C294.7,186.07,268.33,204,280.26,216Z" transform="translate(-124.64 -95.41)" style="fill:#347a34"/><path d="M346,210.89c4.63-4.63,9.26-5.21,14.45-5.15a71.2,71.2,0,0,0-5.9-6C349.9,201.84,346,205.18,346,210.89Z" transform="translate(-124.64 -95.41)" style="fill:#5caa2e"/><path d="M289.68,212.54c2.77,9.69,7.84,17.07,9.43,26a31.28,31.28,0,0,0,5.55-.5C305.53,227.07,294.5,220.58,289.68,212.54Z" transform="translate(-124.64 -95.41)" style="fill:#5caa2e"/><path d="M313.14,209.23c2.41-12.4,15.52-18.54,27.44-18.43a52.84,52.84,0,0,0-18.24-4c-9.48,3.16-16.52,11.78-19.11,22.81,5.71,7.18,11.34,15.59,12.65,25.24,3.21-1.18,6.49-2.53,9.84-3.89C324.35,222.31,319.38,214.8,313.14,209.23Z" transform="translate(-124.64 -95.41)" style="fill:#5caa2e"/><path d="M319.48,208.54c10.07,2.52,14.39,10.52,15.16,19,2.87-1,5.77-2,8.72-2.7C339.55,215.12,335.45,205.37,319.48,208.54Z" transform="translate(-124.64 -95.41)" style="fill:#5caa2e"/><path d="M242.22,290.41A125.75,125.75,0,0,1,244.44,267a99,99,0,0,1,6.87-22.52,57.31,57.31,0,0,1,13.59-19.25,47.7,47.7,0,0,1,9.74-6.74,71.46,71.46,0,0,1,10.8-4.65,109.26,109.26,0,0,1,22.81-5.13,125.48,125.48,0,0,1,23.33-.67,88.26,88.26,0,0,1,22.89,4.29,44.63,44.63,0,0,1,10.47,5.07,23.31,23.31,0,0,1,7.86,8.44,23.14,23.14,0,0,0-8-8.27,44.68,44.68,0,0,0-10.5-4.85,88.1,88.1,0,0,0-22.8-3.86,125.87,125.87,0,0,0-23.12,1.08A108.63,108.63,0,0,0,286,215.34c-7.2,2.64-14.17,6.19-19.7,11.36a55,55,0,0,0-12.72,18.74,96.68,96.68,0,0,0-6.29,22,123.61,123.61,0,0,0-1.76,22.84Z" transform="translate(-124.64 -95.41)" style="fill:#506815"/><path d="M241.68,177.08s2.18,14.77-20.74,13.35c-34.06-2.12-23.75-47-31.31-68.94s-27-26.08-27-26.08S222,101.62,243.86,131,258.25,181.49,241.68,177.08Z" transform="translate(-124.64 -95.41)" style="fill:#5caa2e"/><path d="M223.51,113.93q-3-1.71-6.16-3.24c-2,3.48-3.79,11.39.1,21.23C215.6,121.09,220.57,116,223.51,113.93Z" transform="translate(-124.64 -95.41)" style="fill:#8cc64e"/><path d="M193.93,152.9c.34,3.38.75,6.73,1.33,10,6.18-2.42,22-6.58,42.23,3,1.36-17,7.17-27.1,9.45-30.5-1-1.45-2-2.91-3.08-4.4a47.84,47.84,0,0,0-3.77-4.44c-3.65,3.9-11.52,13.81-9.6,25.34C218.86,148.26,201.25,148.55,193.93,152.9Z" transform="translate(-124.64 -95.41)" style="fill:#8cc64e"/><path d="M246.67,293.71A237.58,237.58,0,0,0,250,268.2c.71-8.58,1-17.19.91-25.8a234.11,234.11,0,0,0-6-51.2,184.54,184.54,0,0,0-7.85-24.59,146.84,146.84,0,0,0-11.75-23l-3.56-5.4-3.89-5.17c-1.25-1.76-2.71-3.35-4.13-5s-2.76-3.32-4.34-4.79l-4.6-4.56c-1.57-1.49-3.26-2.84-4.89-4.26l-2.46-2.11c-.85-.67-1.74-1.28-2.6-1.93l-5.23-3.83,5.29,3.75c.88.63,1.78,1.23,2.64,1.89l2.49,2.07c1.65,1.4,3.38,2.72,5,4.19l4.68,4.5c1.62,1.45,3,3.16,4.44,4.74a63.94,63.94,0,0,1,4.22,4.94l4,5.13,3.66,5.37a147.17,147.17,0,0,1,12.21,23,187.71,187.71,0,0,1,8.31,24.67,236.5,236.5,0,0,1,6.89,51.56c.23,8.68.07,17.38-.5,26.05a238.08,238.08,0,0,1-3,26Z" transform="translate(-124.64 -95.41)" style="fill:#506815"/><path d="M268.86,198.27S266.68,213,289.6,211.62c34.06-2.11,23.75-47,31.31-68.94s27-26.08,27-26.08-59.42,6.21-81.24,35.6S252.29,202.69,268.86,198.27Z" transform="translate(-124.64 -95.41)" style="fill:#388c38"/><path d="M318.77,152a53.5,53.5,0,0,1,2.14-9.36c.12-.35.25-.69.38-1a32.59,32.59,0,0,0-21.62,2.79c1.37-8.21,6.64-15,12.53-20a144.2,144.2,0,0,0-19,7.45c-4.73,7.57-3.65,18.41-6.29,27.67C297.34,152.08,307.17,149.73,318.77,152Z" transform="translate(-124.64 -95.41)" style="fill:#8cc64e"/><path d="M269.81,191a83.29,83.29,0,0,1,37,13.09c3.33-3.62,5.5-8.3,7-13.56C298.83,188.63,285,184.94,269.81,191Z" transform="translate(-124.64 -95.41)" style="fill:#8cc64e"/><path d="M278.09,172.81c13.44,0,26.86-1.31,37.87,6.91.35-2.61.63-5.28.87-7.95C304.44,166.74,289.44,164.29,278.09,172.81Z" transform="translate(-124.64 -95.41)" style="fill:#8cc64e"/><path d="M277.74,141.24a55.79,55.79,0,0,0-11.06,11l-.58.8a35.8,35.8,0,0,0,10.34,24.78C276.44,165.6,276.45,153.42,277.74,141.24Z" transform="translate(-124.64 -95.41)" style="fill:#8cc64e"/><path d="M251.6,298.7c-.18-8.5.14-16.89.69-25.31s1.45-16.79,2.65-25.13,2.72-16.63,4.6-24.84a246.32,246.32,0,0,1,7-24.27,171.44,171.44,0,0,1,9.93-23.21c1.86-3.78,4.08-7.37,6.25-11l3.54-5.23c1.16-1.76,2.55-3.35,3.81-5A100.25,100.25,0,0,1,308,137a94.79,94.79,0,0,1,22-12.19,94.12,94.12,0,0,0-21.7,12.52,99.4,99.4,0,0,0-17.5,17.88c-1.22,1.7-2.58,3.3-3.7,5.06l-3.43,5.25c-2.09,3.62-4.23,7.21-6,11a169.8,169.8,0,0,0-9.46,23.19,243.24,243.24,0,0,0-6.55,24.19q-2.6,12.26-4.16,24.71a321.62,321.62,0,0,0-2.49,50Z" transform="translate(-124.64 -95.41)" style="fill:#506815"/><path d="M230.22,267.91s7.17,22-20.7,19.13-58.8-22.35-84.88-5c35.19-37.25,52.59-47.36,83.92-43.45C237.53,242.23,235.11,262.85,230.22,267.91Z" transform="translate(-124.64 -95.41)" style="fill:#1c5e1c"/><path d="M193.11,237.94a58.12,58.12,0,0,0-19.29,4.27c10.9-.65,24.6,1.62,31.84,10.07C205.66,244.47,199.17,241.08,193.11,237.94Z" transform="translate(-124.64 -95.41)" style="fill:#388c38"/><path d="M177.1,250.31c-5.67,0-13-.78-18.67.61-9.87,7-20.57,17.16-33.79,31.15,8.92-5.95,18.41-7.57,28.14-7C155.47,263.05,167.66,255.71,177.1,250.31Z" transform="translate(-124.64 -95.41)" style="fill:#388c38"/><path d="M162.38,276.18c4.72.83,9.48,2,14.23,3.25,5.2-15,21.6-20.95,35.26-25.5C192.56,249.8,171,259.45,162.38,276.18Z" transform="translate(-124.64 -95.41)" style="fill:#388c38"/><path d="M246.42,299.08a83.39,83.39,0,0,0-10.54-22.15,65.28,65.28,0,0,0-17.08-17.67,56.5,56.5,0,0,0-10.9-5.83,59.59,59.59,0,0,0-12-3.16A71.58,71.58,0,0,0,171,251.53a72.14,72.14,0,0,1,25-2.08,61.62,61.62,0,0,1,12.34,2.81,57.89,57.89,0,0,1,11.38,5.62,67.4,67.4,0,0,1,18.2,17.63,86.09,86.09,0,0,1,11.69,22.67Z" transform="translate(-124.64 -95.41)" style="fill:#506815"/><polygon points="75.7 206.95 90.72 309.18 181.22 309.18 194.91 206.95 75.7 206.95" style="fill:#d18133"/><path d="M317.27,319.41l2.28-17.05H200.35l15,102.23h19.91C233.39,355.58,260.4,306.46,317.27,319.41Z" transform="translate(-124.64 -95.41)" style="fill:#c46c23"/><path d="M317.34,310.22H202.56A11.62,11.62,0,0,1,191,298.63h0A11.62,11.62,0,0,1,202.56,287H317.34a11.62,11.62,0,0,1,11.59,11.59h0A11.62,11.62,0,0,1,317.34,310.22Z" transform="translate(-124.64 -95.41)" style="fill:#d18133"/><path d="M287.7,251.68s-23.4,16.7-6,42.36S316.26,327,312.1,358c21.87-47.35,27.44-75.91,17.82-94.54S296.26,237.61,287.7,251.68Z" transform="translate(-124.64 -95.41)" style="fill:#388c38"/><path d="M296.3,253.93a32.82,32.82,0,0,0-20,14.25,27.17,27.17,0,0,0,.86,17.11C279.12,272.93,285.51,260.68,296.3,253.93Z" transform="translate(-124.64 -95.41)" style="fill:#8cc64e"/><path d="M325,256.18c-6.76-2.43-14.11-2.25-22.05,2.72,10.54,0,21.07,1.07,28.27,7.34-.4-.95-.81-1.89-1.28-2.79A37.2,37.2,0,0,0,325,256.18Z" transform="translate(-124.64 -95.41)" style="fill:#8cc64e"/><path d="M316.17,308.57c0,7.89-3.14,14.73-7.75,21.37a39.86,39.86,0,0,1,3.6,10.91C314.62,330.36,316.92,319.8,316.17,308.57Z" transform="translate(-124.64 -95.41)" style="fill:#8cc64e"/><path d="M309.55,272.14c-1.45,13-6.68,27.28-17.9,35.1,3.88,4.73,7.51,8.89,10.65,13,7.9-9.38,14.54-21.31,10.56-33.24,9.4,2.69,15.53,10.82,18.39,20a116.61,116.61,0,0,0,2.46-12.55C329.14,283.86,321.52,274.54,309.55,272.14Z" transform="translate(-124.64 -95.41)" style="fill:#8cc64e"/><path d="M316,298.86a113.91,113.91,0,0,0-3.32-18.65,70.83,70.83,0,0,0-7.11-17.64,34.51,34.51,0,0,0-6-7.57,15.65,15.65,0,0,0-8.84-4.41c-.43,0-.86-.08-1.29-.1l-1.29.09a13.57,13.57,0,0,0-2.52.51,24.37,24.37,0,0,0-2.35,1c-.71.45-1.47.83-2.13,1.34s-1.34,1-1.91,1.58l-1.74,1.64c-1.18,1.08-2.28,2.23-3.36,3.41a81,81,0,0,0-11.34,15.42,77.82,77.82,0,0,0-5.39,11.6h3.35a77.63,77.63,0,0,1,4.57-10.2A78.88,78.88,0,0,1,276,261.73c1-1.16,2.07-2.31,3.19-3.38l1.66-1.63c.55-.55,1.13-1,1.69-1.46a11.29,11.29,0,0,1,8-2.61,13.66,13.66,0,0,1,7.8,3.74,32.88,32.88,0,0,1,5.83,7.05,63.91,63.91,0,0,1,4.24,8.28,87.87,87.87,0,0,1,3.09,8.83,112.5,112.5,0,0,1,3.69,18.4,157.14,157.14,0,0,1-.19,37.6A157.37,157.37,0,0,0,316,298.86Z" transform="translate(-124.64 -95.41)" style="fill:#506815"/><path d="M253.16,237.83s-9.84-17.29-29.15-7.35-12.77,67,9.21,99.61c6.24-23.73,16.63-48.4,35.86-61.87S271.81,233.88,253.16,237.83Z" transform="translate(-124.64 -95.41)" style="fill:#5caa2e"/><path d="M217.5,294.7A139.17,139.17,0,0,0,224,313.12c1.46-13.76,5.71-26,11-39.32C226.76,277.94,219.64,285.56,217.5,294.7Z" transform="translate(-124.64 -95.41)" style="fill:#8cc64e"/><path d="M232.66,294.46c-3.38,9-4.46,18.15-4.77,26.68a97.83,97.83,0,0,0,5.33,8.95c1.27-4.84,2.75-9.71,4.41-14.53C235.6,308.6,232.48,301.67,232.66,294.46Z" transform="translate(-124.64 -95.41)" style="fill:#8cc64e"/><path d="M246.64,245.65c-6-9-21.61-8.46-31.86-2.06-2.19,7.39-2.7,17-1.71,27.49,5.75-9.42,15.93-16.18,25.29-13.84,8.43,2.81,10.9,16.36,14.5,27.48a74.62,74.62,0,0,1,7.57-9.09A61.84,61.84,0,0,0,246.64,245.65Z" transform="translate(-124.64 -95.41)" style="fill:#8cc64e"/><path d="M257.19,237a15.44,15.44,0,0,0-5.08,1.81,22.1,22.1,0,0,0-4.46,3.32,32.32,32.32,0,0,0-6.57,9.1l-1.23,2.57-1,2.67-.5,1.34-.39,1.37-.79,2.75c-.47,1.85-.81,3.73-1.22,5.59l-.92,5.68a228.47,228.47,0,0,0-2.22,22.92,170.24,170.24,0,0,0,.41,23,168.75,168.75,0,0,1-.82-23,224.48,224.48,0,0,1,1.81-23l.83-5.72c.38-1.89.68-3.81,1.12-5.69l.76-2.81.37-1.4.49-1.38,1-2.74,1.2-2.67a33.85,33.85,0,0,1,6.69-9.6,19.82,19.82,0,0,1,10.4-5.72Z" transform="translate(-124.64 -95.41)" style="fill:#506815"/></g></svg>